<?xml version="1.0" encoding="UTF-8" standalone="no"?>
<svg
   viewBox="0 0 1000 185"
>
 <path
   d="m 821.20662,53.476636 c 0,0 10.34349,69.371794 -3.37859,93.167524 -1.75216,1.37524 -647.93081,-0.10873 -649.07001,-1.56969 -6.10662,-30.17777 -3.33348,-95.434453 -3.33348,-95.434453 -6.5543,-13.235071 -28.2784,-12.749171 -35.5175,0.88504 0,0 4.19696,65.253243 -4.25334,94.777803 L 2.413781,146.17522 0,185.03729 c 333.33501,-0.72197 666.66488,0.68088 1000,0 0,0 -1.89271,-20.06085 -3.55982,-36.85081 l -135.25106,-1.7289 c -9.87422,-24.00264 -1.59296,-92.201103 -1.59296,-92.201103 -14.38395,-8.876004 -24.89184,-7.332445 -38.38954,-0.779841 z"
  />
</svg>
